<svg xmlns="http://www.w3.org/2000/svg" width="24" height="24" viewBox="0 0 24 24">
  <g id="Group_23601" data-name="Group 23601" transform="translate(-1110.668 -1046.668)">
    <g id="Group_23598" data-name="Group 23598" transform="translate(1114.81 1050.02)">
      <path id="Path_16088" data-name="Path 16088" d="M1781.2,143.882a4.324,4.324,0,0,0-3.337,1.8,1.175,1.175,0,0,0,.9,1.924h4.88a1.175,1.175,0,0,0,.9-1.924,4.321,4.321,0,0,0-3.335-1.8" transform="translate(-1773.164 -143.882)" fill="#052942"/>
      <path id="Path_16089" data-name="Path 16089" d="M1787.243,152.826H1785.1c.007-.16.016-.32.016-.483a10.5,10.5,0,0,0-.128-1.608.543.543,0,0,1,.167-.486l1.094-1.01a.724.724,0,0,0-.982-1.064l-1.52,1.406a.56.56,0,0,1-.376.146l-6.89-.012a.548.548,0,0,1-.373-.146l-1.508-1.393a.724.724,0,1,0-.982,1.064l1.094,1.01a.544.544,0,0,1,.167.486,10.5,10.5,0,0,0-.129,1.608c0,.163.01.323.018.483h-2.145a.724.724,0,0,0,0,1.448h1.861a.551.551,0,0,1,.534.438,9.223,9.223,0,0,0,.617,1.835.548.548,0,0,1-.12.637l-1.9,1.752A.723.723,0,1,0,1774.6,160l1.6-1.481a.562.562,0,0,1,.784.035,4.751,4.751,0,0,0,1.285.929.664.664,0,0,0,.927-.62v-6.645a.733.733,0,1,1,1.465,0v6.646a.664.664,0,0,0,.927.619,4.743,4.743,0,0,0,1.287-.929.561.561,0,0,1,.783-.035l1.6,1.481a.724.724,0,0,0,.982-1.063l-1.9-1.753a.547.547,0,0,1-.12-.636,9.352,9.352,0,0,0,.618-1.835.551.551,0,0,1,.533-.438h1.861a.724.724,0,0,0,0-1.448" transform="translate(-1771.899 -144.793)" fill="#052942"/>
    </g>
    <g id="Ellipse_912" data-name="Ellipse 912" transform="translate(1110.668 1046.668)" fill="none" stroke="#052942" stroke-width="2">
      <circle cx="12" cy="12" r="12" stroke="none"/>
      <circle cx="12" cy="12" r="11" fill="none"/>
    </g>
  </g>
</svg>
