<svg xmlns="http://www.w3.org/2000/svg" width="40.793" height="40.793" viewBox="0 0 40.793 40.793"><defs><style>.a{fill:#052942;}.b{fill:#f4f2f0;}</style></defs><rect class="a" width="37" height="30" transform="translate(2.289 6.088)"/><path class="b" d="M-5068.562,5947.055h-35.453a2.669,2.669,0,0,0-2.67,2.67v35.452a2.669,2.669,0,0,0,2.67,2.671h35.453a2.669,2.669,0,0,0,2.67-2.671v-35.452A2.669,2.669,0,0,0-5068.562,5947.055Zm-6.14,15.878-14.867,14.869a2.445,2.445,0,0,1-1.728.716,2.44,2.44,0,0,1-1.725-.716l-6.551-6.549a2.441,2.441,0,0,1,0-3.452,2.438,2.438,0,0,1,3.452,0l4.823,4.823,13.143-13.144a2.443,2.443,0,0,1,3.452,0A2.44,2.44,0,0,1-5074.7,5962.933Z" transform="translate(5106.685 -5947.055)"/></svg>