<svg xmlns="http://www.w3.org/2000/svg" xmlns:xlink="http://www.w3.org/1999/xlink" width="46.266" height="46.263" viewBox="0 0 46.266 46.263"><defs><style>.a{fill:none;}.b{fill:#f4f2f0;}.c{clip-path:url(#a);}.d{fill:#052942;}</style><clipPath id="a"><rect class="a" width="18.5" height="22.273"/></clipPath></defs><g transform="translate(-0.328)"><path class="b" d="M-5931.794,5943.8a23.13,23.13,0,0,0-23.132,23.131,23.131,23.131,0,0,0,23.132,23.132,23.132,23.132,0,0,0,23.134-23.132A23.132,23.132,0,0,0-5931.794,5943.8Z" transform="translate(5955.254 -5943.804)"/><g transform="translate(14.328 11.592)"><g class="c"><path class="d" d="M23.158,8.189,16.652,1.684a.426.426,0,0,0-.727.3V8.491a.426.426,0,0,0,.426.425h6.505a.426.426,0,0,0,.3-.727" transform="translate(-5.875 -0.575)"/><path class="d" d="M8.788,10.866A1.263,1.263,0,0,1,7.526,9.6V.622A.622.622,0,0,0,6.9,0H1.259A1.259,1.259,0,0,0,0,1.258V21.014a1.259,1.259,0,0,0,1.258,1.258H17.242A1.259,1.259,0,0,0,18.5,21.014V11.487a.622.622,0,0,0-.622-.622Z"/></g></g></g></svg>