<svg xmlns="http://www.w3.org/2000/svg" width="22.916" height="15.25" viewBox="0 0 22.916 15.25">
  <g id="Group_23679" data-name="Group 23679" transform="translate(-1290.769 -2160.399)">
    <path id="Path_16169" data-name="Path 16169" d="M1793.6,684.63a12.557,12.557,0,0,0-22.743,0,.946.946,0,0,0,0,.786,12.558,12.558,0,0,0,22.743,0,.931.931,0,0,0,0-.786m-11.372,6.084a5.844,5.844,0,1,1,5.845-5.844,5.843,5.843,0,0,1-5.845,5.844" transform="translate(-480 1483)" fill="#2ac7d2"/>
    <path id="Path_16170" data-name="Path 16170" d="M1782.225,681.226a3.636,3.636,0,0,0-.843.108,2.118,2.118,0,0,1,.313,1.059,2.178,2.178,0,0,1-2.176,2.176,2.155,2.155,0,0,1-.89-.2,3.639,3.639,0,1,0,4.1-3.111,3.734,3.734,0,0,0-.505-.034Z" transform="translate(-480 1483)" fill="#2ac7d2"/>
  </g>
</svg>
