<svg xmlns="http://www.w3.org/2000/svg" width="46.266" height="46.263" viewBox="0 0 46.266 46.263"><defs><style>.a{fill:#052942;}.b{fill:#f4f2f0;}</style></defs><circle class="a" cx="18.5" cy="18.5" r="18.5" transform="translate(5.328 4.953)"/><path class="b" d="M-5931.794,5943.8a23.13,23.13,0,0,0-23.132,23.131,23.131,23.131,0,0,0,23.132,23.132,23.132,23.132,0,0,0,23.134-23.132A23.132,23.132,0,0,0-5931.794,5943.8Zm-.1,7.626a3.637,3.637,0,0,1,3.636,3.638,3.635,3.635,0,0,1-3.636,3.636,3.635,3.635,0,0,1-3.636-3.636A3.637,3.637,0,0,1-5931.895,5951.43Zm11.5,11.4-1.036.306a35.948,35.948,0,0,1-5.044,1.089,1.551,1.551,0,0,0-1.351,1.534l.055,1.249.047,1.062.029.667a37.329,37.329,0,0,0,1.132,7.6l.966,3.75a1.879,1.879,0,0,1-1.352,2.289,1.889,1.889,0,0,1-.471.062,1.881,1.881,0,0,1-1.821-1.413l-1.926-9.475a.6.6,0,0,0-.632-.488.6.6,0,0,0-.631.488l-1.926,9.475a1.873,1.873,0,0,1-2.291,1.352,1.878,1.878,0,0,1-1.353-2.289l.965-3.75a37.06,37.06,0,0,0,1.132-7.6l.132-2.978a1.552,1.552,0,0,0-1.352-1.534,35.978,35.978,0,0,1-5.044-1.089l-1.033-.306a1.878,1.878,0,0,1-1.273-2.334,1.881,1.881,0,0,1,2.335-1.273l1.035.3a32.912,32.912,0,0,0,18.608,0l1.033-.3a1.882,1.882,0,0,1,2.337,1.273A1.879,1.879,0,0,1-5920.391,5962.832Z" transform="translate(5954.926 -5943.804)"/></svg>