<svg xmlns="http://www.w3.org/2000/svg" width="24" height="23.999" viewBox="0 0 24 23.999">
  <g id="Group_23667" data-name="Group 23667" transform="translate(-1237.857 -2305.556)">
    <path id="Path_16163" data-name="Path 16163" d="M1496.959,246.367a1.774,1.774,0,0,1-1.257-.52,7.093,7.093,0,0,1,0-10.024l3.2-3.2a7.088,7.088,0,1,1,10.024,10.024l-.486.484a1.777,1.777,0,1,1-2.507-2.519l.482-.481a3.534,3.534,0,0,0-5-4.994l-3.194,3.2a3.54,3.54,0,0,0,0,4.994,1.778,1.778,0,0,1-1.257,3.036" transform="translate(-249.138 2075)" fill="#052942"/>
    <path id="Path_16164" data-name="Path 16164" d="M1497.943,249.789a7.085,7.085,0,0,1-5.013-12.1l.505-.505a1.778,1.778,0,0,1,2.514,2.516l-.5.5a3.532,3.532,0,0,0,4.994,5l3.194-3.2a3.531,3.531,0,0,0,0-4.994,1.779,1.779,0,0,1,2.516-2.516,7.088,7.088,0,0,1,0,10.024l-3.2,3.2a7.062,7.062,0,0,1-5.011,2.073" transform="translate(-253 2079.766)" fill="#052942"/>
  </g>
</svg>
