<svg xmlns="http://www.w3.org/2000/svg" xmlns:xlink="http://www.w3.org/1999/xlink" width="24" height="20.604" viewBox="0 0 24 20.604">
  <defs>
    <clipPath id="clip-path">
      <rect id="Rectangle_3977" data-name="Rectangle 3977" width="24" height="20.605" fill="#052942"/>
    </clipPath>
  </defs>
  <g id="Group_23669" data-name="Group 23669" transform="translate(0 0)">
    <g id="Group_23668" data-name="Group 23668" transform="translate(0 0)" clip-path="url(#clip-path)">
      <path id="Path_16165" data-name="Path 16165" d="M21.773,0H2.233A2.233,2.233,0,0,0,0,2.233v12.8l6.957-6.96a.9.9,0,0,1,1.237,0l5.007,5,2.524-2.52a.871.871,0,0,1,1.231-.007l.006.007,4.057,4.057a.876.876,0,0,1-1.24,1.237l-3.434-3.436-2.527,2.522a.882.882,0,0,1-1.239,0l-5-5.007L0,17.516v.856A2.233,2.233,0,0,0,2.233,20.6h19.54A2.23,2.23,0,0,0,24,18.372V2.233A2.23,2.23,0,0,0,21.773,0M21.18,5.247a2.834,2.834,0,1,1-2.836-2.836A2.836,2.836,0,0,1,21.18,5.247Z" transform="translate(0 0)" fill="#052942"/>
    </g>
  </g>
</svg>
