<svg xmlns="http://www.w3.org/2000/svg" xmlns:xlink="http://www.w3.org/1999/xlink" width="272.5" height="233.056" viewBox="0 0 272.5 233.056">
  <defs>
    <filter id="Path_16321" x="131.63" y="0" width="140.87" height="149.501" filterUnits="userSpaceOnUse">
      <feOffset dy="-3" input="SourceAlpha"/>
      <feGaussianBlur stdDeviation="7.5" result="blur"/>
      <feFlood flood-color="#052942" flood-opacity="0.102"/>
      <feComposite operator="in" in2="blur"/>
      <feComposite in="SourceGraphic"/>
    </filter>
  </defs>
  <g id="Group_24014" data-name="Group 24014" transform="translate(6712.703 3057.131)">
    <g id="Group_23918" data-name="Group 23918" transform="translate(-6712.703 -3043.661)">
      <path id="Path_16195" data-name="Path 16195" d="M-6542.4-2339.888c2.69,6.988,14.064,15.8,33.537,22.471,45.065,15.427,160.633,25.074,143.506-17.4-16.977-42.1-126.583-39.01-160.336-26.009C-6540.344-2355.182-6545.092-2346.867-6542.4-2339.888Z" transform="translate(6581.971 2523.892)" fill="#0c3f5b" opacity="0.1"/>
      <g id="Group_23907" data-name="Group 23907" transform="translate(44.13)">
        <g id="Group_23901" data-name="Group 23901">
          <g id="Group_11085" data-name="Group 11085">
            <path id="Path_8418" data-name="Path 8418" d="M-6490.135-2936.942l141.971,24.594c3.414.591,6.056-.715,5.855-2.947l-11.137-123.336c-.409-3.306-3.65-5.349-7.875-4.988l-156.742,18.9c-1.64.2-2.435,1.964-1.8,3.944l25.963,80.532A5.3,5.3,0,0,0-6490.135-2936.942Z" transform="translate(6520.082 3043.661)" fill="#cecece"/>
            <path id="Path_8419" data-name="Path 8419" d="M-6472.82-2905.483l139.223,22.489-11.964-115.125-151.905,14.777Z" transform="translate(6502.648 3008.552)" fill="#0c3f5b"/>
          </g>
        </g>
        <g id="Group_23906" data-name="Group 23906" transform="translate(10.327 14.592)">
          <g id="Group_23905" data-name="Group 23905" opacity="0.15">
            <g id="Group_23902" data-name="Group 23902" transform="translate(11.617 51.993)">
              <path id="Path_16196" data-name="Path 16196" d="M-6406.593-2747.8l-16.231-.991a.425.425,0,0,1-.343-.29l-1.12-3.676c-.046-.153.031-.273.174-.266l16.258.746a.44.44,0,0,1,.375.308l1.1,3.9A.2.2,0,0,1-6406.593-2747.8Z" transform="translate(6424.301 2753.026)" fill="#fff" opacity="0.5"/>
              <path id="Path_16197" data-name="Path 16197" d="M-6316.765-2743.338l-18.778-1.147a.449.449,0,0,1-.377-.312l-1.091-3.939a.207.207,0,0,1,.215-.284l18.827.862a.473.473,0,0,1,.417.333l1.047,4.194A.228.228,0,0,1-6316.765-2743.338Z" transform="translate(6357.019 2749.938)" fill="#fff" opacity="0.5"/>
              <path id="Path_16198" data-name="Path 16198" d="M-6212.434-2738.149l-21.974-1.342a.484.484,0,0,1-.422-.337l-1.036-4.244a.24.24,0,0,1,.269-.305l22.055,1.01a.509.509,0,0,1,.471.362l.963,4.542C-6212.069-2738.276-6212.216-2738.135-6212.434-2738.149Z" transform="translate(6279.044 2746.359)" fill="#fff" opacity="0.5"/>
              <path id="Path_16199" data-name="Path 16199" d="M-6089.776-2732.042l-26.062-1.592a.528.528,0,0,1-.479-.368l-.946-4.6c-.039-.192.113-.34.339-.329l26.193,1.2a.565.565,0,0,1,.539.4l.827,4.951C-6089.331-2732.178-6089.517-2732.026-6089.776-2732.042Z" transform="translate(6187.611 2742.16)" fill="#fff" opacity="0.5"/>
              <path id="Path_16200" data-name="Path 16200" d="M-5939.335-2724.547l-31.566-1.928a.582.582,0,0,1-.55-.405l-.8-5.031c-.032-.21.16-.371.433-.358l31.777,1.456a.629.629,0,0,1,.628.44l.607,5.457C-5938.777-2724.694-5939.016-2724.527-5939.335-2724.547Z" transform="translate(6075.817 2737.026)" fill="#fff" opacity="0.5"/>
            </g>
            <g id="Group_23903" data-name="Group 23903">
              <path id="Path_16201" data-name="Path 16201" d="M-6319.464-2881l-136.021-4.973a.416.416,0,0,1-.344-.29l-8.072-26.47c-.05-.166.024-.309.168-.319l139.653-9.129a.59.59,0,0,1,.665.429l4.49,40.354C-6318.9-2881.164-6319.141-2880.987-6319.464-2881Z" transform="translate(6466.458 2935.419)" fill="#fff"/>
              <path id="Path_16202" data-name="Path 16202" d="M-6341.515-2686.414l-65.6-10.586a.458.458,0,0,1-.332-.293l-7.82-25.652c-.046-.15.031-.264.175-.254l66.846,4.707a.524.524,0,0,1,.47.365l6.582,31.469C-6341.156-2686.488-6341.3-2686.379-6341.515-2686.414Z" transform="translate(6428.961 2782.026)" fill="#fff"/>
              <path id="Path_16203" data-name="Path 16203" d="M-6035.788-2679.4l-61.17-6.849a.55.55,0,0,1-.473-.373l-2.84-14.033c-.04-.189.115-.328.342-.312l62.21,4.38a.638.638,0,0,1,.62.442l1.831,16.427C-6035.244-2679.511-6035.476-2679.369-6035.788-2679.4Z" transform="translate(6186.129 2764.891)" fill="#fff"/>
              <path id="Path_16204" data-name="Path 16204" d="M-6020.817-2596.146l-59.889-9.665a.571.571,0,0,1-.463-.375l-2.69-13.295c-.037-.178.115-.3.338-.273l60.895,7.48c.308.038.578.237.6.444l1.718,15.413C-6020.285-2596.218-6020.513-2596.1-6020.817-2596.146Z" transform="translate(6173.476 2702.283)" fill="#fff"/>
              <path id="Path_16205" data-name="Path 16205" d="M-6456.606-2924.81l-17.81,1.628a.1.1,0,0,1-.1-.076l-.489-1.607c-.014-.045,0-.085.044-.089l17.819-1.753a.106.106,0,0,1,.1.08l.482,1.722A.069.069,0,0,1-6456.606-2924.81Z" transform="translate(6475.005 2938.909)" fill="#fff"/>
              <path id="Path_16206" data-name="Path 16206" d="M-6381.106-2928.93l-8.026.733a.09.09,0,0,1-.088-.068l-.488-1.758a.06.06,0,0,1,.048-.082l8.03-.79a.093.093,0,0,1,.093.071l.483,1.811A.064.064,0,0,1-6381.106-2928.93Z" transform="translate(6409.254 2942.139)" fill="#fff"/>
              <path id="Path_16207" data-name="Path 16207" d="M-5973.194-2969.976a2.05,2.05,0,0,1-2.062,2.149,2.306,2.306,0,0,1-2.595-1.707,2.043,2.043,0,0,1,2.031-2.156A2.306,2.306,0,0,1-5973.194-2969.976Z" transform="translate(6091.764 2973.598)" fill="#fff"/>
              <path id="Path_16208" data-name="Path 16208" d="M-5933.314-2973.967a2.165,2.165,0,0,1-2.2,2.209,2.367,2.367,0,0,1-2.691-1.745,2.157,2.157,0,0,1,2.163-2.216A2.366,2.366,0,0,1-5933.314-2973.967Z" transform="translate(6061.195 2976.705)" fill="#fff"/>
              <path id="Path_16209" data-name="Path 16209" d="M-5891.442-2978.16a2.3,2.3,0,0,1-2.34,2.273,2.431,2.431,0,0,1-2.794-1.786,2.286,2.286,0,0,1,2.306-2.28A2.431,2.431,0,0,1-5891.442-2978.16Z" transform="translate(6029.106 2979.969)" fill="#fff"/>
            </g>
            <g id="Group_23904" data-name="Group 23904" transform="translate(1.353 8.468)">
              <path id="Path_16210" data-name="Path 16210" d="M-6468.951-2931.658l-.146-.333,140.57-11.018.14.432Z" transform="translate(6469.097 2943.008)" fill="#fff" opacity="0.3"/>
            </g>
          </g>
          <path id="Path_16211" data-name="Path 16211" d="M-6420.187-2836.395l8.029-15.191,13.055,9.153,11.545-15.512,11.374,8.02,3.376-5.867,14.434,10.864,12.41-12.278,17.2,12.732,9.036-7.261,28.41,20.052Z" transform="translate(6432.746 2885.901)" fill="#0c3f5b"/>
        </g>
        <path id="Path_16212" data-name="Path 16212" d="M-6468.251-2984.067l144.438,98.967,12.739,2.106-11.965-115.125Z" transform="translate(6480.126 3008.553)" fill="#fff" opacity="0.1"/>
      </g>
      <g id="Group_23917" data-name="Group 23917" transform="translate(0 106.093)">
        <path id="Path_16213" data-name="Path 16213" d="M-6542.673-2458.231l-167.574-65.57c-2.661-.908-3.2-4.4-1.411-5.393l66.742-33.6a8.1,8.1,0,0,1,4.575-.641l146.069,21.324c5.175,2,3.8,5.357,2.951,6.961-10.018,19.011-37.031,69.937-41.311,75.524C-6534.285-2457.47-6538.479-2456.611-6542.673-2458.231Z" transform="translate(6712.703 2567.435)" fill="#c1c1c1"/>
        <path id="Path_16214" data-name="Path 16214" d="M-6640.341-2563.438a8.1,8.1,0,0,0-4.576.641l-66.741,33.6c-1.792.989-1.25,4.485,1.411,5.393l167.574,65.57a12.045,12.045,0,0,0,4.907.822l7.6-89.944Z" transform="translate(6712.703 2567.435)" fill="#c1c1c1"/>
        <path id="Path_16215" data-name="Path 16215" d="M-5905.637-2487.687l-35.9-5.241-7.6,89.944A6.828,6.828,0,0,0-5944-2405.2c4.28-5.587,31.295-56.513,41.313-75.524C-5901.839-2482.332-5900.462-2485.687-5905.637-2487.687Z" transform="translate(6124.068 2513.009)" fill="#a4a4a5"/>
        <g id="Group_23916" data-name="Group 23916" transform="translate(0.142)">
          <path id="Path_16216" data-name="Path 16216" d="M-6543.591-2478.407l-167.542-61.565c-1.5-.551-1.181-1.819.671-2.828l68.057-37.041a8.328,8.328,0,0,1,4.656-.647l142.406,24.707c2.923.507,4.59,2.1,3.713,3.657l-42.342,72.206C-6535.306-2477.644-6539.651-2476.959-6543.591-2478.407Z" transform="translate(6712.081 2580.58)" fill="#e0dfe0"/>
          <g id="Group_23908" data-name="Group 23908" transform="translate(60.267 8.476)">
            <path id="Path_16217" data-name="Path 16217" d="M-6396.031-2529.913l-5.511-1.18c-.329-.07-.388-.25-.134-.4l3.976-2.38a1.676,1.676,0,0,1,1.033-.146l5.476,1.111c.337.069.415.247.172.4l-3.94,2.45A1.67,1.67,0,0,1-6396.031-2529.913Z" transform="translate(6412.645 2536.233)" fill="#0c3f5b"/>
            <path id="Path_16218" data-name="Path 16218" d="M-6440.055-2538.9l-8.706-1.864c-.309-.067-.35-.238-.093-.383l4.024-2.271a1.681,1.681,0,0,1,1-.141l8.659,1.757c.323.066.388.237.141.383l-3.979,2.372A1.678,1.678,0,0,1-6440.055-2538.9Z" transform="translate(6449.022 2543.586)" fill="#0c3f5b"/>
            <path id="Path_16219" data-name="Path 16219" d="M-6362.714-2523.089l-5.759-1.233c-.344-.074-.417-.26-.166-.417l3.936-2.459a1.675,1.675,0,0,1,1.056-.148l5.716,1.159c.353.072.445.256.205.411l-3.894,2.533A1.664,1.664,0,0,1-6362.714-2523.089Z" transform="translate(6387.17 2531.089)" fill="#0c3f5b"/>
            <path id="Path_16220" data-name="Path 16220" d="M-6327.9-2515.961l-6.022-1.29c-.358-.077-.448-.271-.2-.433l3.887-2.542a1.667,1.667,0,0,1,1.078-.153l5.972,1.212c.369.074.477.266.24.427l-3.836,2.62A1.665,1.665,0,0,1-6327.9-2515.961Z" transform="translate(6360.553 2525.719)" fill="#0c3f5b"/>
            <path id="Path_16221" data-name="Path 16221" d="M-6291.477-2508.51l-6.3-1.351c-.375-.081-.481-.282-.236-.45l3.831-2.63a1.654,1.654,0,0,1,1.1-.156l6.247,1.267c.386.078.512.277.28.443l-3.774,2.713A1.656,1.656,0,0,1-6291.477-2508.51Z" transform="translate(6332.715 2520.106)" fill="#0c3f5b"/>
            <path id="Path_16222" data-name="Path 16222" d="M-6253.334-2500.713l-6.61-1.416c-.393-.084-.516-.294-.275-.468l3.764-2.723a1.658,1.658,0,0,1,1.124-.16l6.542,1.327c.4.082.548.288.319.461l-3.7,2.812A1.651,1.651,0,0,1-6253.334-2500.713Z" transform="translate(6303.57 2514.235)" fill="#0c3f5b"/>
            <path id="Path_16223" data-name="Path 16223" d="M-6213.352-2492.543l-6.936-1.486c-.412-.088-.555-.307-.319-.486l3.69-2.824a1.647,1.647,0,0,1,1.148-.164l6.855,1.391c.424.086.588.3.366.48l-3.611,2.917A1.643,1.643,0,0,1-6213.352-2492.543Z" transform="translate(6273.025 2508.086)" fill="#0c3f5b"/>
            <path id="Path_16224" data-name="Path 16224" d="M-6171.389-2483.974l-7.286-1.561c-.434-.093-.6-.32-.367-.507l3.6-2.929a1.638,1.638,0,0,1,1.175-.169l7.194,1.46c.444.09.631.313.415.5l-3.511,3.03A1.634,1.634,0,0,1-6171.389-2483.974Z" transform="translate(6240.975 2501.642)" fill="#0c3f5b"/>
            <path id="Path_16225" data-name="Path 16225" d="M-6127.295-2474.977l-7.663-1.641c-.456-.1-.642-.335-.418-.529l3.5-3.043a1.627,1.627,0,0,1,1.2-.172l7.559,1.533c.467.095.678.329.47.522l-3.395,3.149A1.626,1.626,0,0,1-6127.295-2474.977Z" transform="translate(6207.307 2494.877)" fill="#0c3f5b"/>
            <path id="Path_16226" data-name="Path 16226" d="M-6080.9-2465.519l-8.071-1.728c-.479-.1-.691-.351-.475-.553l3.38-3.163a1.622,1.622,0,0,1,1.231-.178l7.951,1.613c.492.1.73.344.53.545l-3.262,3.279A1.614,1.614,0,0,1-6080.9-2465.519Z" transform="translate(6171.896 2487.77)" fill="#0c3f5b"/>
            <path id="Path_16227" data-name="Path 16227" d="M-6032.034-2455.561l-8.512-1.823c-.506-.109-.747-.368-.539-.579l3.247-3.293a1.61,1.61,0,0,1,1.26-.183l8.375,1.7c.518.1.786.36.594.57l-3.11,3.417A1.6,1.6,0,0,1-6032.034-2455.561Z" transform="translate(6134.602 2480.293)" fill="#0c3f5b"/>
            <path id="Path_16228" data-name="Path 16228" d="M-5980.476-2445.065l-8.992-1.926c-.533-.115-.8-.385-.605-.606l3.092-3.432a1.593,1.593,0,0,1,1.291-.189l8.835,1.792c.547.111.845.378.666.6l-2.936,3.567A1.594,1.594,0,0,1-5980.476-2445.065Z" transform="translate(6095.271 2472.416)" fill="#0c3f5b"/>
            <path id="Path_16229" data-name="Path 16229" d="M-5926.007-2433.985l-9.513-2.037c-.562-.121-.868-.406-.681-.635l2.914-3.583a1.588,1.588,0,0,1,1.325-.194l9.332,1.893c.578.117.913.4.745.625l-2.735,3.727A1.576,1.576,0,0,1-5926.007-2433.985Z" transform="translate(6053.732 2464.105)" fill="#0c3f5b"/>
          </g>
          <g id="Group_23909" data-name="Group 23909" transform="translate(54.54 11.593)">
            <path id="Path_16230" data-name="Path 16230" d="M-6463.056-2524.593l-10.708-2.44c-.311-.07-.343-.25-.075-.4l4.2-2.373a1.686,1.686,0,0,1,1.026-.145l10.656,2.3c.329.07.389.253.134.407l-4.157,2.5A1.68,1.68,0,0,1-6463.056-2524.593Z" transform="translate(6474.021 2529.979)" fill="#0c3f5b"/>
            <path id="Path_16231" data-name="Path 16231" d="M-6412.768-2513.69l-5.607-1.277c-.334-.077-.39-.269-.125-.429l4.152-2.511a1.684,1.684,0,0,1,1.064-.15l5.574,1.2c.343.074.417.263.164.423l-4.116,2.587A1.68,1.68,0,0,1-6412.768-2513.69Z" transform="translate(6431.35 2520.811)" fill="#0c3f5b"/>
            <path id="Path_16232" data-name="Path 16232" d="M-6378.848-2506.306l-5.869-1.337c-.349-.079-.418-.279-.156-.444l4.112-2.6a1.669,1.669,0,0,1,1.084-.154l5.826,1.255c.36.078.448.274.2.438l-4.07,2.678A1.677,1.677,0,0,1-6378.848-2506.306Z" transform="translate(6405.419 2515.247)" fill="#0c3f5b"/>
            <path id="Path_16233" data-name="Path 16233" d="M-6343.355-2498.583l-6.146-1.4c-.366-.083-.452-.29-.192-.462l4.064-2.688a1.675,1.675,0,0,1,1.11-.158l6.1,1.314c.375.082.481.285.235.456l-4.014,2.773A1.669,1.669,0,0,1-6343.355-2498.583Z" transform="translate(6378.292 2509.429)" fill="#0c3f5b"/>
            <path id="Path_16234" data-name="Path 16234" d="M-6306.177-2490.5l-6.443-1.468c-.383-.087-.486-.3-.229-.48l4.006-2.785a1.668,1.668,0,0,1,1.134-.162l6.384,1.376c.394.085.518.3.275.474l-3.948,2.876A1.667,1.667,0,0,1-6306.177-2490.5Z" transform="translate(6349.883 2503.343)" fill="#0c3f5b"/>
            <path id="Path_16235" data-name="Path 16235" d="M-6267.187-2482.025l-6.763-1.541c-.4-.092-.523-.316-.271-.5l3.939-2.888a1.659,1.659,0,0,1,1.16-.165l6.693,1.443c.414.089.558.31.32.493l-3.871,2.986A1.657,1.657,0,0,1-6267.187-2482.025Z" transform="translate(6320.098 2496.967)" fill="#0c3f5b"/>
            <path id="Path_16236" data-name="Path 16236" d="M-6226.253-2473.135l-7.107-1.62c-.423-.1-.564-.33-.317-.521l3.861-3a1.651,1.651,0,0,1,1.185-.17l7.027,1.514c.435.093.6.323.366.514l-3.78,3.1A1.653,1.653,0,0,1-6226.253-2473.135Z" transform="translate(6288.835 2490.28)" fill="#0c3f5b"/>
            <path id="Path_16237" data-name="Path 16237" d="M-6183.224-2463.8l-7.479-1.7c-.446-.1-.609-.345-.367-.544l3.77-3.115a1.641,1.641,0,0,1,1.213-.175l7.385,1.591c.455.1.644.338.418.537l-3.677,3.227A1.641,1.641,0,0,1-6183.224-2463.8Z" transform="translate(6255.981 2483.261)" fill="#0c3f5b"/>
            <path id="Path_16238" data-name="Path 16238" d="M-6137.938-2453.977l-7.88-1.795c-.468-.107-.656-.362-.422-.569l3.663-3.24a1.641,1.641,0,0,1,1.244-.18l7.771,1.675c.48.1.695.354.476.561l-3.554,3.36A1.634,1.634,0,0,1-6137.938-2453.977Z" transform="translate(6221.414 2475.882)" fill="#0c3f5b"/>
            <path id="Path_16239" data-name="Path 16239" d="M-6090.209-2443.635l-8.315-1.894c-.494-.113-.708-.38-.481-.6l3.54-3.376a1.625,1.625,0,0,1,1.272-.185l8.189,1.765c.506.109.749.372.539.586l-3.413,3.5A1.623,1.623,0,0,1-6090.209-2443.635Z" transform="translate(6184.993 2468.115)" fill="#0c3f5b"/>
            <path id="Path_16240" data-name="Path 16240" d="M-6039.838-2432.729l-8.786-2c-.521-.119-.767-.4-.549-.624l3.4-3.52a1.618,1.618,0,0,1,1.305-.191l8.642,1.863c.534.115.808.391.609.615l-3.255,3.659A1.609,1.609,0,0,1-6039.838-2432.729Z" transform="translate(6146.568 2459.931)" fill="#0c3f5b"/>
            <path id="Path_16241" data-name="Path 16241" d="M-5986.6-2421.211l-9.3-2.118c-.552-.126-.829-.42-.622-.656l3.235-3.677a1.6,1.6,0,0,1,1.338-.2l9.131,1.968c.567.122.875.411.687.645l-3.068,3.826A1.6,1.6,0,0,1-5986.6-2421.211Z" transform="translate(6105.967 2451.293)" fill="#0c3f5b"/>
            <path id="Path_16242" data-name="Path 16242" d="M-5930.229-2409.028l-9.859-2.246c-.583-.133-.9-.441-.7-.688l3.046-3.845a1.6,1.6,0,0,1,1.374-.2l9.665,2.083c.6.129.945.433.771.678l-2.854,4.007A1.59,1.59,0,0,1-5930.229-2409.028Z" transform="translate(6063 2442.163)" fill="#0c3f5b"/>
          </g>
          <path id="Path_16243" data-name="Path 16243" d="M-5878.8-2428.962l-2.741,3.785c-.167.229.158.513.728.635l1.17.251c.572.122.905.41.742.643l-3.25,4.625c-.174.246.164.555.753.69l7.267,1.656c.61.139,1.24.045,1.4-.209l6.153-9.585c.146-.227-.211-.507-.794-.625l-10.137-2.056A1.5,1.5,0,0,0-5878.8-2428.962Z" transform="translate(6072.327 2463.883)" fill="#0c3f5b"/>
          <g id="Group_23910" data-name="Group 23910" transform="translate(42.132 18.377)">
            <path id="Path_16244" data-name="Path 16244" d="M-6522.694-2495.773l-5.244-1.359c-.313-.081-.327-.282-.032-.448l4.612-2.6a1.7,1.7,0,0,1,1.077-.152l5.225,1.277c.322.079.356.277.073.442l-4.594,2.685A1.7,1.7,0,0,1-6522.694-2495.773Z" transform="translate(6528.182 2500.367)" fill="#0c3f5b"/>
            <path id="Path_16245" data-name="Path 16245" d="M-6490.977-2487.916l-5.487-1.422c-.328-.085-.353-.293-.06-.465l4.59-2.694a1.7,1.7,0,0,1,1.1-.156l5.464,1.336c.336.082.382.288.1.458l-4.565,2.78A1.7,1.7,0,0,1-6490.977-2487.916Z" transform="translate(6503.934 2494.446)" fill="#0c3f5b"/>
            <path id="Path_16246" data-name="Path 16246" d="M-6457.771-2479.7l-5.75-1.491c-.342-.088-.381-.305-.091-.483l4.563-2.79a1.692,1.692,0,0,1,1.123-.16l5.719,1.4c.354.086.413.3.134.478l-4.529,2.881A1.7,1.7,0,0,1-6457.771-2479.7Z" transform="translate(6478.554 2488.256)" fill="#0c3f5b"/>
            <path id="Path_16247" data-name="Path 16247" d="M-6420.855-2470.54l-8.148-2.112c-.36-.093-.415-.319-.126-.5l4.527-2.893a1.691,1.691,0,0,1,1.149-.164l8.094,1.98c.375.092.457.316.181.5l-4.474,3.017A1.689,1.689,0,0,1-6420.855-2470.54Z" transform="translate(6451.964 2481.774)" fill="#0c3f5b"/>
            <path id="Path_16248" data-name="Path 16248" d="M-6096.926-2390.7l-9-2.332c-.533-.138-.763-.455-.515-.707l3.871-3.928a1.642,1.642,0,0,1,1.378-.2l8.853,2.166c.549.135.81.446.583.7l-3.725,4.094A1.639,1.639,0,0,1-6096.926-2390.7Z" transform="translate(6203.139 2421.396)" fill="#0c3f5b"/>
            <path id="Path_16249" data-name="Path 16249" d="M-5984.706-2363.137l-10.162-2.634c-.6-.156-.9-.508-.678-.785l3.511-4.317a1.625,1.625,0,0,1,1.456-.217l9.962,2.437c.618.152.958.5.756.773l-3.312,4.512A1.621,1.621,0,0,1-5984.706-2363.137Z" transform="translate(6117.632 2400.759)" fill="#0c3f5b"/>
            <path id="Path_16250" data-name="Path 16250" d="M-6042.7-2368.978l-9.553-2.476c-.566-.147-.83-.48-.592-.745l1.452-1.612a1.641,1.641,0,0,1,1.436-.213l9.466,2.384c.587.147.885.486.663.756l-1.386,1.683A1.632,1.632,0,0,1-6042.7-2368.978Z" transform="translate(6161.813 2403.019)" fill="#0c3f5b"/>
            <path id="Path_16251" data-name="Path 16251" d="M-5923.087-2338.774l-10.832-2.807c-.64-.166-.987-.537-.775-.829l1.289-1.78a1.613,1.613,0,0,1,1.52-.228l10.714,2.7c.666.168,1.053.545.859.844l-1.2,1.865C-5921.708-2338.707-5922.415-2338.6-5923.087-2338.774Z" transform="translate(6070.712 2380.205)" fill="#0c3f5b"/>
            <path id="Path_16252" data-name="Path 16252" d="M-6157.988-2405.677l-11.321-2.935c-.5-.129-.687-.427-.428-.665l4.043-3.714a1.657,1.657,0,0,1,1.334-.195l11.156,2.729c.518.127.746.423.509.663l-3.887,3.908A1.651,1.651,0,0,1-6157.988-2405.677Z" transform="translate(6251.947 2433.201)" fill="#0c3f5b"/>
            <path id="Path_16253" data-name="Path 16253" d="M-6337.4-2449.461l-46.119-11.952c-.381-.1-.457-.336-.173-.53l4.47-3.03a1.685,1.685,0,0,1,1.182-.17l45.633,11.164c.483.118.674.4.426.624l-4.058,3.694A1.663,1.663,0,0,1-6337.4-2449.461Z" transform="translate(6416.931 2473.243)" fill="#0c3f5b"/>
          </g>
          <g id="Group_23911" data-name="Group 23911" transform="translate(48.439 14.911)">
            <path id="Path_16254" data-name="Path 16254" d="M-6493.333-2510.695l-7.068-1.716c-.311-.075-.335-.266-.054-.424l4.4-2.484a1.694,1.694,0,0,1,1.052-.148l7.036,1.615c.325.074.371.263.1.422l-4.374,2.581A1.692,1.692,0,0,1-6493.333-2510.695Z" transform="translate(6500.65 2515.497)" fill="#0c3f5b"/>
            <path id="Path_16255" data-name="Path 16255" d="M-6455.937-2502.031l-5.517-1.339c-.328-.08-.367-.279-.089-.444l4.371-2.589a1.689,1.689,0,0,1,1.079-.152l5.486,1.259c.339.078.4.274.13.438l-4.341,2.669A1.685,1.685,0,0,1-6455.937-2502.031Z" transform="translate(6470.645 2508.627)" fill="#0c3f5b"/>
            <path id="Path_16256" data-name="Path 16256" d="M-6422.57-2494.287l-5.775-1.4c-.344-.084-.4-.29-.12-.461l4.337-2.679a1.689,1.689,0,0,1,1.1-.156l5.737,1.317c.354.081.427.284.164.455l-4.3,2.763A1.682,1.682,0,0,1-6422.57-2494.287Z" transform="translate(6445.14 2502.793)" fill="#0c3f5b"/>
            <path id="Path_16257" data-name="Path 16257" d="M-6387.633-2486.184l-6.051-1.47c-.361-.087-.429-.3-.155-.479l4.3-2.774a1.682,1.682,0,0,1,1.125-.16l6.007,1.379c.372.085.461.3.2.473l-4.251,2.864A1.689,1.689,0,0,1-6387.633-2486.184Z" transform="translate(6418.439 2496.691)" fill="#0c3f5b"/>
            <path id="Path_16258" data-name="Path 16258" d="M-6351.013-2477.7l-6.349-1.542c-.378-.092-.463-.315-.192-.5l4.246-2.876a1.68,1.68,0,0,1,1.15-.165l6.3,1.445c.389.09.5.31.238.492l-4.193,2.972A1.676,1.676,0,0,1-6351.013-2477.7Z" transform="translate(6390.46 2490.302)" fill="#0c3f5b"/>
            <path id="Path_16259" data-name="Path 16259" d="M-6312.587-2468.8l-6.667-1.62c-.4-.1-.5-.329-.233-.52l4.187-2.985a1.675,1.675,0,0,1,1.176-.168l6.605,1.516c.409.094.535.323.282.513l-4.124,3.087A1.676,1.676,0,0,1-6312.587-2468.8Z" transform="translate(6361.107 2483.605)" fill="#0c3f5b"/>
            <path id="Path_16260" data-name="Path 16260" d="M-6272.215-2459.452l-7.013-1.7c-.418-.1-.54-.345-.277-.543l4.115-3.1a1.665,1.665,0,0,1,1.2-.173l6.938,1.592c.429.1.578.338.328.535l-4.041,3.21A1.665,1.665,0,0,1-6272.215-2459.452Z" transform="translate(6330.276 2476.578)" fill="#0c3f5b"/>
            <path id="Path_16261" data-name="Path 16261" d="M-6229.747-2449.63l-7.383-1.793c-.439-.107-.585-.36-.327-.567l4.031-3.224a1.66,1.66,0,0,1,1.233-.178l7.3,1.675c.452.1.623.354.38.559l-3.943,3.342A1.661,1.661,0,0,1-6229.747-2449.63Z" transform="translate(6297.853 2469.196)" fill="#0c3f5b"/>
            <path id="Path_16262" data-name="Path 16262" d="M-6185.017-2439.292l-7.786-1.891c-.464-.113-.632-.378-.38-.593l3.933-3.357a1.655,1.655,0,0,1,1.263-.183l7.683,1.764c.477.109.673.371.438.584l-3.831,3.484A1.651,1.651,0,0,1-6185.017-2439.292Z" transform="translate(6263.715 2461.43)" fill="#0c3f5b"/>
            <path id="Path_16263" data-name="Path 16263" d="M-6137.836-2428.4l-8.224-2c-.488-.119-.685-.4-.439-.622l3.817-3.5a1.644,1.644,0,0,1,1.295-.188l8.1,1.86c.5.115.727.389.5.612l-3.7,3.636A1.639,1.639,0,0,1-6137.836-2428.4Z" transform="translate(6227.719 2453.252)" fill="#0c3f5b"/>
            <path id="Path_16264" data-name="Path 16264" d="M-6088-2416.9l-8.7-2.112c-.515-.125-.741-.417-.5-.651l3.682-3.654a1.641,1.641,0,0,1,1.329-.194l8.559,1.965c.529.121.785.409.567.641l-3.546,3.8A1.627,1.627,0,0,1-6088-2416.9Z" transform="translate(6189.707 2444.624)" fill="#0c3f5b"/>
            <path id="Path_16265" data-name="Path 16265" d="M-6035.282-2404.745l-9.213-2.238c-.546-.133-.8-.439-.577-.684l3.526-3.819a1.626,1.626,0,0,1,1.363-.2l9.053,2.078c.56.128.85.43.643.674l-3.367,3.978A1.622,1.622,0,0,1-6035.282-2404.745Z" transform="translate(6149.51 2435.511)" fill="#0c3f5b"/>
            <path id="Path_16266" data-name="Path 16266" d="M-5961.414-2387.507l-27.781-6.747c-.578-.14-.872-.463-.657-.72l3.346-4a1.612,1.612,0,0,1,1.4-.207l27.221,6.248c.643.147,1.023.487.849.758l-2.854,4.437C-5960.075-2387.45-5960.757-2387.347-5961.414-2387.507Z" transform="translate(6106.932 2425.873)" fill="#0c3f5b"/>
          </g>
          <g id="Group_23912" data-name="Group 23912" transform="translate(65.799 5.468)">
            <path id="Path_16267" data-name="Path 16267" d="M-6419.474-2552.98l-5.139-1.035c-.305-.062-.354-.225-.109-.363l3.852-2.175a1.679,1.679,0,0,1,.981-.137l5.109.976c.315.06.379.22.143.358l-3.823,2.234A1.675,1.675,0,0,1-6419.474-2552.98Z" transform="translate(6424.878 2556.712)" fill="#0c3f5b"/>
            <path id="Path_16268" data-name="Path 16268" d="M-6388.435-2546.993l-5.355-1.079c-.321-.064-.381-.233-.138-.376l3.82-2.241a1.671,1.671,0,0,1,1-.141l5.32,1.017c.329.062.405.228.171.371l-3.785,2.3A1.663,1.663,0,0,1-6388.435-2546.993Z" transform="translate(6401.133 2552.195)" fill="#0c3f5b"/>
            <path id="Path_16269" data-name="Path 16269" d="M-6356.072-2540.753l-5.587-1.126c-.333-.067-.406-.241-.166-.389l3.781-2.312a1.672,1.672,0,0,1,1.021-.143l5.546,1.06c.342.065.433.237.2.383l-3.742,2.378A1.66,1.66,0,0,1-6356.072-2540.753Z" transform="translate(6376.38 2547.489)" fill="#0c3f5b"/>
            <path id="Path_16270" data-name="Path 16270" d="M-6322.3-2534.247l-5.835-1.175c-.347-.071-.436-.251-.2-.4l3.735-2.386a1.659,1.659,0,0,1,1.041-.147l5.788,1.106c.357.068.462.246.235.4l-3.689,2.456A1.654,1.654,0,0,1-6322.3-2534.247Z" transform="translate(6350.557 2542.583)" fill="#0c3f5b"/>
            <path id="Path_16271" data-name="Path 16271" d="M-6287.03-2527.453l-6.1-1.229c-.364-.073-.467-.26-.233-.417l3.683-2.465a1.65,1.65,0,0,1,1.062-.15l6.044,1.154c.373.072.495.255.272.412l-3.627,2.54A1.653,1.653,0,0,1-6287.03-2527.453Z" transform="translate(6323.589 2537.462)" fill="#0c3f5b"/>
            <path id="Path_16272" data-name="Path 16272" d="M-6250.151-2520.355l-6.382-1.286c-.381-.077-.5-.271-.269-.434l3.62-2.549a1.652,1.652,0,0,1,1.085-.154l6.318,1.207c.39.074.529.266.311.427l-3.558,2.628A1.641,1.641,0,0,1-6250.151-2520.355Z" transform="translate(6295.4 2532.116)" fill="#0c3f5b"/>
            <path id="Path_16273" data-name="Path 16273" d="M-6211.556-2512.931l-6.685-1.347c-.4-.08-.536-.282-.309-.451l3.549-2.638a1.64,1.64,0,0,1,1.107-.157l6.611,1.263c.409.078.567.277.354.444l-3.476,2.722A1.644,1.644,0,0,1-6211.556-2512.931Z" transform="translate(6265.905 2526.526)" fill="#0c3f5b"/>
            <path id="Path_16274" data-name="Path 16274" d="M-6171.121-2505.158l-7.01-1.413c-.417-.084-.575-.294-.353-.469l3.466-2.732a1.636,1.636,0,0,1,1.132-.161l6.926,1.323c.428.081.607.288.4.462l-3.383,2.822A1.63,1.63,0,0,1-6171.121-2505.158Z" transform="translate(6235.012 2520.674)" fill="#0c3f5b"/>
            <path id="Path_16275" data-name="Path 16275" d="M-6128.713-2497.011l-7.36-1.483c-.438-.089-.617-.307-.4-.488l3.373-2.833a1.62,1.62,0,0,1,1.157-.166l7.263,1.387c.448.085.65.3.449.481l-3.276,2.928A1.62,1.62,0,0,1-6128.713-2497.011Z" transform="translate(6202.62 2514.546)" fill="#0c3f5b"/>
            <path id="Path_16276" data-name="Path 16276" d="M-6084.183-2488.462l-7.735-1.558c-.46-.093-.663-.321-.454-.509l3.265-2.941a1.611,1.611,0,0,1,1.183-.169l7.627,1.456c.471.09.7.314.5.5l-3.154,3.042A1.613,1.613,0,0,1-6084.183-2488.462Z" transform="translate(6168.614 2508.117)" fill="#0c3f5b"/>
            <path id="Path_16277" data-name="Path 16277" d="M-6037.367-2479.479l-8.141-1.641c-.484-.1-.712-.335-.511-.531l3.141-3.055a1.6,1.6,0,0,1,1.211-.175l8.016,1.531c.5.094.749.328.563.522l-3.015,3.165A1.6,1.6,0,0,1-6037.367-2479.479Z" transform="translate(6132.874 2501.367)" fill="#0c3f5b"/>
            <path id="Path_16278" data-name="Path 16278" d="M-5988.086-2470.032l-8.58-1.729c-.51-.1-.766-.351-.574-.555l3-3.178a1.591,1.591,0,0,1,1.239-.18l8.438,1.611c.522.1.8.344.629.546l-2.858,3.295A1.588,1.588,0,0,1-5988.086-2470.032Z" transform="translate(6095.263 2494.271)" fill="#0c3f5b"/>
            <path id="Path_16279" data-name="Path 16279" d="M-5936.137-2460.08l-9.055-1.824c-.538-.109-.825-.368-.643-.581l2.837-3.31a1.584,1.584,0,0,1,1.272-.186l8.892,1.7c.55.1.865.361.7.572l-2.679,3.436A1.574,1.574,0,0,1-5936.137-2460.08Z" transform="translate(6055.627 2486.8)" fill="#0c3f5b"/>
            <path id="Path_16280" data-name="Path 16280" d="M-5874.617-2448.154l-16.007-3.226c-.713-.144-1.117-.486-.9-.763l2.5-3.25a1.972,1.972,0,0,1,1.636-.239l15.693,3c.75.144,1.214.488,1.033.771l-2.22,3.455C-5873.073-2448.114-5873.85-2448-5874.617-2448.154Z" transform="translate(6013.765 2478.834)" fill="#0c3f5b"/>
          </g>
          <g id="Group_23915" data-name="Group 23915" transform="translate(71.07 3.391)">
            <path id="Path_16281" data-name="Path 16281" d="M-6396.339-2563.032l-5.31-1.007c-.248-.048-.294-.174-.1-.283l2.356-1.329a1.368,1.368,0,0,1,.791-.11l5.288.968c.255.046.312.172.125.282l-2.337,1.365A1.365,1.365,0,0,1-6396.339-2563.032Z" transform="translate(6401.87 2565.779)" fill="#052942"/>
            <path id="Path_16282" data-name="Path 16282" d="M-5824.5-2457.974l-6.2-1.176c-.474-.09-.758-.306-.635-.483l1.5-2.154c.121-.172.6-.241,1.066-.155l6.116,1.119c.479.088.779.3.665.478l-1.419,2.21C-5823.516-2457.954-5824.007-2457.882-5824.5-2457.974Z" transform="translate(5962.064 2485.76)" fill="#052942"/>
            <g id="Group_23914" data-name="Group 23914" transform="translate(7.071 1.297)">
              <path id="Path_16283" data-name="Path 16283" d="M-6249.792-2535.389l-120.918-22.931c-.323-.061-.391-.224-.155-.362l2.167-1.272a1.69,1.69,0,0,1,1-.14l119.876,21.94c.576.106.922.364.772.577l-1.406,1.992C-6248.609-2535.366-6249.208-2535.278-6249.792-2535.389Z" transform="translate(6371.005 2560.116)" fill="#052942"/>
              <g id="Group_23913" data-name="Group 23913" transform="translate(3.75 1.028)">
                <path id="Path_16284" data-name="Path 16284" d="M-6349.072-2553.8l-5.367-1.008c-.211-.04-.26-.145-.108-.235l.8-.475a1.092,1.092,0,0,1,.654-.092l5.354.99c.218.04.274.147.126.239l-.789.487A1.085,1.085,0,0,1-6349.072-2553.8Z" transform="translate(6354.636 2555.628)" fill="#fff" opacity="0.15"/>
                <path id="Path_16285" data-name="Path 16285" d="M-6315.648-2547.6l-5.6-1.052c-.221-.041-.277-.15-.128-.244l.787-.49a1.087,1.087,0,0,1,.667-.093l5.587,1.032c.228.042.292.153.146.248l-.779.5A1.077,1.077,0,0,1-6315.648-2547.6Z" transform="translate(6329.061 2550.903)" fill="#fff" opacity="0.15"/>
                <path id="Path_16286" data-name="Path 16286" d="M-6280.327-2541.054l-5.853-1.1c-.229-.043-.3-.156-.15-.253l.775-.507a1.087,1.087,0,0,1,.681-.1l5.838,1.079c.236.044.313.159.169.257l-.766.52A1.076,1.076,0,0,1-6280.327-2541.054Z" transform="translate(6302.039 2545.912)" fill="#fff" opacity="0.15"/>
                <path id="Path_16287" data-name="Path 16287" d="M-6203.718-2526.755l-45.355-8.519c-.241-.045-.318-.163-.174-.263l.762-.523a1.077,1.077,0,0,1,.7-.1l45.195,8.356c.3.056.444.2.318.313l-.665.623A1.055,1.055,0,0,1-6203.718-2526.755Z" transform="translate(6273.447 2540.632)" fill="#fff" opacity="0.15"/>
                <path id="Path_16288" data-name="Path 16288" d="M-5998.029-2488.655l-38.078-7.152c-.309-.058-.455-.2-.33-.321l.657-.628a1.052,1.052,0,0,1,.778-.112l37.891,7.006c.363.066.574.23.473.365l-.543.719A1.023,1.023,0,0,1-5998.029-2488.655Z" transform="translate(6109.372 2510.348)" fill="#fff" opacity="0.15"/>
              </g>
            </g>
          </g>
          <path id="Path_16289" data-name="Path 16289" d="M-6473.663-2402.421l-68.573-24.4c-1.268-.451-1.3-1.468-.086-2.267l26.834-17.7a5.635,5.635,0,0,1,4-.575l65.3,17.255c1.767.467,2.53,1.548,1.687,2.419l-23.71,24.441C-6469.308-2402.116-6471.762-2401.744-6473.663-2402.421Z" transform="translate(6581.897 2477.991)" fill="#052942" opacity="0.1"/>
        </g>
        <path id="Path_16290" data-name="Path 16290" d="M-6466.636-2317.113a1.494,1.494,0,0,0,1.013,2.041c1.252.442,28.653,10.552,31.092,11.479,2.158.82,2.671-.76,2.671-.76s1.337-.528.663-1c-.736-.515-4.081-1.516-9.826-3.682-9.575-3.61-22.528-8.47-23.337-8.768A1.843,1.843,0,0,0-6466.636-2317.113Z" transform="translate(6523.113 2378.111)" fill="#050505" opacity="0.2" style="mix-blend-mode: normal;isolation: isolate"/>
      </g>
    </g>
    <g id="Group_23988" data-name="Group 23988" transform="translate(-6586.129 -3031.631)">
      <g id="Group_23951" data-name="Group 23951" transform="translate(0 71.981)">
        <g id="Group_23919" data-name="Group 23919">
          <path id="Path_16291" data-name="Path 16291" d="M-6080.508-2589.31l-67.89,11.954a1.053,1.053,0,0,1-1.245-.936l-10.581-97.776a.816.816,0,0,1,.9-.85l60.811-.046a1,1,0,0,1,.945.757l17.729,85.767A.914.914,0,0,1-6080.508-2589.31Z" transform="translate(6160.228 2676.965)" fill="#fff"/>
        </g>
        <g id="Group_23920" data-name="Group 23920" transform="translate(20.105 8.916)">
          <path id="Path_16292" data-name="Path 16292" d="M-6072.247-2637.328l37.986-.719c.11,0,.2.016.205.042l.237,1.779c0,.026-.082.049-.192.051l-38.2.863c-.126,0-.231-.018-.231-.045l-.032-1.916C-6072.474-2637.3-6072.373-2637.326-6072.247-2637.328Z" transform="translate(6072.474 2638.047)" fill="#e0dfe0"/>
        </g>
        <g id="Group_23925" data-name="Group 23925" transform="translate(19.592 5.591)">
          <g id="Group_23921" data-name="Group 23921">
            <path id="Path_16293" data-name="Path 16293" d="M-6036.23-2651.384l-38.232.585a.1.1,0,0,1-.1-.079l-.149-1.1a.074.074,0,0,1,.079-.081l38.169-.5a.1.1,0,0,1,.093.074l.2,1.026A.061.061,0,0,1-6036.23-2651.384Z" transform="translate(6074.712 2652.561)" fill="#e0dfe0"/>
          </g>
          <g id="Group_23922" data-name="Group 23922" transform="translate(2.097 15.551)">
            <path id="Path_16294" data-name="Path 16294" d="M-6061.878-2583.367l-3.421.212a.1.1,0,0,1-.1-.08l-.156-1.157a.079.079,0,0,1,.081-.088l3.41-.2a.1.1,0,0,1,.1.08l.165,1.148A.079.079,0,0,1-6061.878-2583.367Z" transform="translate(6065.559 2584.683)" fill="#e0dfe0"/>
          </g>
          <g id="Group_23923" data-name="Group 23923" transform="translate(8.285 14.175)">
            <path id="Path_16295" data-name="Path 16295" d="M-6005.542-2589.462l-32.735,1.349a.1.1,0,0,1-.1-.08l-.168-1.142a.076.076,0,0,1,.077-.087l32.686-1.269a.1.1,0,0,1,.1.075l.211,1.073A.065.065,0,0,1-6005.542-2589.462Z" transform="translate(6038.548 2590.691)" fill="#e0dfe0"/>
          </g>
          <g id="Group_23924" data-name="Group 23924" transform="translate(2.626 18.272)">
            <path id="Path_16296" data-name="Path 16296" d="M-6033.8-2571.538l-29.186,1.485a.1.1,0,0,1-.1-.082l-.158-1.171a.08.08,0,0,1,.082-.089l29.136-1.412a.1.1,0,0,1,.1.076l.2,1.105A.07.07,0,0,1-6033.8-2571.538Z" transform="translate(6063.251 2572.805)" fill="#e0dfe0"/>
          </g>
        </g>
        <g id="Group_23934" data-name="Group 23934" transform="translate(20.558 13.64)">
          <g id="Group_23926" data-name="Group 23926" transform="translate(2.238 15.166)">
            <path id="Path_16297" data-name="Path 16297" d="M-6047.525-2549.908l-12.937.8a.1.1,0,0,1-.1-.081l-.16-1.186a.083.083,0,0,1,.082-.092l12.91-.77a.1.1,0,0,1,.1.079l.181,1.156A.077.077,0,0,1-6047.525-2549.908Z" transform="translate(6060.727 2551.233)" fill="#7beaf3"/>
          </g>
          <g id="Group_23927" data-name="Group 23927">
            <path id="Path_16298" data-name="Path 16298" d="M-6057.491-2616.152l-12.749.44a.1.1,0,0,1-.1-.081l-.156-1.142a.078.078,0,0,1,.083-.084l12.722-.41a.1.1,0,0,1,.1.079l.175,1.113A.072.072,0,0,1-6057.491-2616.152Z" transform="translate(6070.497 2617.429)" fill="#e0dfe0"/>
          </g>
          <g id="Group_23928" data-name="Group 23928" transform="translate(3.328 23.698)">
            <path id="Path_16299" data-name="Path 16299" d="M-6051.862-2512.612l-3.837.356a.1.1,0,0,1-.1-.082l-.165-1.216a.086.086,0,0,1,.082-.095l3.826-.344a.1.1,0,0,1,.1.081l.174,1.2A.084.084,0,0,1-6051.862-2512.612Z" transform="translate(6055.969 2513.993)" fill="#e0dfe0"/>
          </g>
          <g id="Group_23929" data-name="Group 23929" transform="translate(9.854 23.069)">
            <path id="Path_16300" data-name="Path 16300" d="M-6020.693-2515.379l-6.508.462a.1.1,0,0,1-.1-.082l-.178-1.2a.083.083,0,0,1,.079-.094l6.5-.444a.1.1,0,0,1,.1.08l.186,1.184A.08.08,0,0,1-6020.693-2515.379Z" transform="translate(6027.484 2516.736)" fill="#e0dfe0"/>
          </g>
          <g id="Group_23930" data-name="Group 23930" transform="translate(3.889 25.061)">
            <path id="Path_16301" data-name="Path 16301" d="M-6013.324-2506.742l-39.886,3.214a.147.147,0,0,1-.156-.121l-.153-1.147a.126.126,0,0,1,.12-.142l39.819-3.106a.138.138,0,0,1,.142.112l.209,1.058A.1.1,0,0,1-6013.324-2506.742Z" transform="translate(6053.521 2508.043)" fill="#e0dfe0"/>
          </g>
          <g id="Group_23931" data-name="Group 23931" transform="translate(4.446 31.96)">
            <path id="Path_16302" data-name="Path 16302" d="M-6047.208-2476.514l-3.607.4a.1.1,0,0,1-.107-.083l-.167-1.245a.087.087,0,0,1,.082-.1l3.6-.39a.1.1,0,0,1,.105.083l.178,1.236A.087.087,0,0,1-6047.208-2476.514Z" transform="translate(6051.089 2477.93)" fill="#e0dfe0"/>
          </g>
          <g id="Group_23932" data-name="Group 23932" transform="translate(10.905 28.924)">
            <path id="Path_16303" data-name="Path 16303" d="M-5989.036-2489.865l-33.573,2.889a.1.1,0,0,1-.107-.082l-.18-1.229a.084.084,0,0,1,.079-.1l33.521-2.8a.1.1,0,0,1,.1.077l.228,1.148A.074.074,0,0,1-5989.036-2489.865Z" transform="translate(6022.897 2491.181)" fill="#e0dfe0"/>
          </g>
          <g id="Group_23933" data-name="Group 23933" transform="translate(5.015 34.136)">
            <path id="Path_16304" data-name="Path 16304" d="M-6022.479-2467.061l-25.849,2.519a.1.1,0,0,1-.107-.083l-.169-1.261a.089.089,0,0,1,.083-.1l25.8-2.445a.1.1,0,0,1,.1.08l.211,1.2A.08.08,0,0,1-6022.479-2467.061Z" transform="translate(6048.606 2468.433)" fill="#e0dfe0"/>
          </g>
        </g>
        <g id="Group_23943" data-name="Group 23943" transform="translate(26.752 54.53)">
          <g id="Group_23935" data-name="Group 23935">
            <path id="Path_16305" data-name="Path 16305" d="M-6002.517-2437.584l-40.662,4.57a.1.1,0,0,1-.108-.084l-.175-1.294a.094.094,0,0,1,.085-.1l40.591-4.45a.094.094,0,0,1,.1.078l.235,1.189A.078.078,0,0,1-6002.517-2437.584Z" transform="translate(6043.462 2438.948)" fill="#e0dfe0"/>
          </g>
          <g id="Group_23936" data-name="Group 23936" transform="translate(0.591 4.04)">
            <path id="Path_16306" data-name="Path 16306" d="M-5999.726-2419.933l-40.869,4.928a.1.1,0,0,1-.11-.084l-.176-1.311a.094.094,0,0,1,.084-.107l40.8-4.805a.1.1,0,0,1,.1.078l.238,1.2A.079.079,0,0,1-5999.726-2419.933Z" transform="translate(6040.881 2421.312)" fill="#e0dfe0"/>
          </g>
          <g id="Group_23937" data-name="Group 23937" transform="translate(1.19 11.305)">
            <path id="Path_16307" data-name="Path 16307" d="M-6022.68-2388.128l-15.3,2.039a.1.1,0,0,1-.11-.084l-.179-1.328a.1.1,0,0,1,.084-.108l15.269-1.991a.1.1,0,0,1,.106.082l.206,1.285A.09.09,0,0,1-6022.68-2388.128Z" transform="translate(6038.269 2389.602)" fill="#e0dfe0"/>
          </g>
          <g id="Group_23938" data-name="Group 23938" transform="translate(19.148 10.178)">
            <path id="Path_16308" data-name="Path 16308" d="M-5953.1-2393.079l-6.467.816a.1.1,0,0,1-.106-.082l-.209-1.278a.088.088,0,0,1,.076-.1l6.456-.8a.1.1,0,0,1,.1.08l.22,1.261A.087.087,0,0,1-5953.1-2393.079Z" transform="translate(5959.882 2394.524)" fill="#7beaf3"/>
          </g>
          <g id="Group_23939" data-name="Group 23939" transform="translate(28.148 8.133)">
            <path id="Path_16309" data-name="Path 16309" d="M-5906.232-2402.051l-14.041,1.773a.1.1,0,0,1-.1-.081l-.222-1.255a.085.085,0,0,1,.071-.1l14.021-1.731a.094.094,0,0,1,.1.079l.241,1.218A.079.079,0,0,1-5906.232-2402.051Z" transform="translate(5920.601 2403.447)" fill="#e0dfe0"/>
          </g>
          <g id="Group_23940" data-name="Group 23940" transform="translate(2.411 21.722)">
            <path id="Path_16310" data-name="Path 16310" d="M-6028.806-2342.588l-3.837.665a.1.1,0,0,1-.112-.085l-.183-1.362a.1.1,0,0,1,.083-.113l3.827-.65a.1.1,0,0,1,.112.084l.192,1.35A.1.1,0,0,1-6028.806-2342.588Z" transform="translate(6032.938 2344.135)" fill="#e0dfe0"/>
          </g>
          <g id="Group_23941" data-name="Group 23941" transform="translate(9.203 16.451)">
            <path id="Path_16311" data-name="Path 16311" d="M-5968.287-2365.714l-34.7,4.964a.1.1,0,0,1-.11-.084l-.2-1.342a.1.1,0,0,1,.081-.111l34.64-4.856a.1.1,0,0,1,.1.079l.247,1.248A.084.084,0,0,1-5968.287-2365.714Z" transform="translate(6003.292 2367.144)" fill="#e0dfe0"/>
          </g>
          <g id="Group_23942" data-name="Group 23942" transform="translate(3.033 22.893)">
            <path id="Path_16312" data-name="Path 16312" d="M-6003.064-2337.53l-26.859,4.193a.1.1,0,0,1-.113-.085l-.186-1.38a.1.1,0,0,1,.085-.115l26.809-4.105a.1.1,0,0,1,.105.082l.229,1.3A.091.091,0,0,1-6003.064-2337.53Z" transform="translate(6030.223 2339.024)" fill="#e0dfe0"/>
          </g>
        </g>
        <g id="Group_23944" data-name="Group 23944" transform="translate(6.255 6.228)">
          <path id="Path_16313" data-name="Path 16313" d="M-6123.8-2642.707l-7.994.15a.267.267,0,0,1-.273-.214l-.86-6.74a.2.2,0,0,1,.216-.216l7.936-.052a.266.266,0,0,1,.267.21l.917,6.642A.2.2,0,0,1-6123.8-2642.707Zm-7.8-.291,7.506-.135-.855-6.22-7.458.054Z" transform="translate(6132.928 2649.779)" fill="#e0dfe0"/>
        </g>
        <g id="Group_23945" data-name="Group 23945" transform="translate(7.693 5.733)">
          <path id="Path_16314" data-name="Path 16314" d="M-6126.651-2648.917l3.2,3.2,4.862-6.227-5.171,4.187Z" transform="translate(6126.651 2651.942)" fill="#7beaf3"/>
        </g>
        <g id="Group_23946" data-name="Group 23946" transform="translate(8.243 21.588)">
          <path id="Path_16315" data-name="Path 16315" d="M-6114.952-2575.39l-8.122.372a.264.264,0,0,1-.278-.215l-.894-7.006a.213.213,0,0,1,.22-.232l8.061-.266a.264.264,0,0,1,.271.212l.954,6.9A.211.211,0,0,1-6114.952-2575.39Zm-7.93-.093,7.625-.344-.888-6.462-7.575.256Z" transform="translate(6124.247 2582.738)" fill="#e0dfe0"/>
        </g>
        <g id="Group_23947" data-name="Group 23947" transform="translate(9.712 21.035)">
          <path id="Path_16316" data-name="Path 16316" d="M-6117.839-2581.779l3.262,3.253,4.918-6.624-5.239,4.5Z" transform="translate(6117.839 2585.149)" fill="#7beaf3"/>
        </g>
        <g id="Group_23948" data-name="Group 23948" transform="translate(10.361 37.927)">
          <path id="Path_16317" data-name="Path 16317" d="M-6105.535-2503.773l-8.254.618a.265.265,0,0,1-.285-.217l-.93-7.3a.225.225,0,0,1,.223-.247l8.193-.5a.262.262,0,0,1,.276.214l.992,7.182A.223.223,0,0,1-6105.535-2503.773Zm-8.062.126,7.751-.573-.926-6.726-7.7.48Z" transform="translate(6115.007 2511.42)" fill="#e0dfe0"/>
        </g>
        <g id="Group_23949" data-name="Group 23949" transform="translate(13.162 59.534)">
          <path id="Path_16318" data-name="Path 16318" d="M-6093.074-2409.054l-8.43.957a.261.261,0,0,1-.291-.22l-.981-7.687a.246.246,0,0,1,.228-.27l8.364-.831a.259.259,0,0,1,.284.216l1.044,7.561A.244.244,0,0,1-6093.074-2409.054Zm-8.235.43,7.916-.892-.974-7.081-7.862.788Z" transform="translate(6102.778 2417.106)" fill="#e0dfe0"/>
        </g>
        <g id="Group_23950" data-name="Group 23950" transform="translate(15.465 77.28)">
          <path id="Path_16319" data-name="Path 16319" d="M-6082.834-2331.259l-8.573,1.25a.259.259,0,0,1-.3-.222l-1.023-8.016a.262.262,0,0,1,.229-.29l8.506-1.112a.257.257,0,0,1,.289.217l1.089,7.88A.261.261,0,0,1-6082.834-2331.259Zm-8.374.691,8.047-1.166-1.015-7.381-7.994,1.052Z" transform="translate(6092.729 2339.651)" fill="#e0dfe0"/>
        </g>
      </g>
      <path id="Path_16320" data-name="Path 16320" d="M-6013.208-2861.605l-26.291,58.4a.935.935,0,0,0,.317,1.131l42.634,22.242Z" transform="translate(6067.208 2891.285)" opacity="0.15"/>
      <g id="Group_23987" data-name="Group 23987" transform="translate(27.557)">
        <g id="Group_23952" data-name="Group 23952">
          <g transform="matrix(1, 0, 0, 1, -154.13, -25.5)" filter="url(#Path_16321)">
            <path id="Path_16321-2" data-name="Path 16321" d="M-5984.351-2886.687l-55.153-15.175a.727.727,0,0,1-.388-.985l28.566-84.27a1.37,1.37,0,0,1,1.076-.928l65.352-3.106a.712.712,0,0,1,.749,1.044l-38.865,102.72A1.144,1.144,0,0,1-5984.351-2886.687Z" transform="translate(6194.08 3016.65)" fill="#fff"/>
          </g>
        </g>
        <g id="Group_23953" data-name="Group 23953" transform="translate(40.236 12.583)">
          <path id="Path_16322" data-name="Path 16322" d="M-5863.156-2935.653l41.738-.578c.146,0,.253.024.238.059l-1.041,2.379c-.015.034-.145.063-.292.064l-41.627.277c-.112,0-.192-.024-.179-.054l.934-2.09C-5863.373-2935.626-5863.269-2935.652-5863.156-2935.653Z" transform="translate(5864.32 2936.23)" fill="#7beaf3"/>
        </g>
        <g id="Group_23958" data-name="Group 23958" transform="translate(34.91 8.076)">
          <g id="Group_23954" data-name="Group 23954" transform="translate(7.157)">
            <path id="Path_16323" data-name="Path 16323" d="M-5813.935-2954.3l-42.338.959c-.045,0-.067-.038-.05-.088l.432-1.228a.136.136,0,0,1,.113-.092l42.441-1.155a.068.068,0,0,1,.068.1l-.523,1.4A.17.17,0,0,1-5813.935-2954.3Z" transform="translate(5856.329 2955.9)" fill="#e0dfe0"/>
          </g>
          <g id="Group_23955" data-name="Group 23955" transform="translate(1.425 17.623)">
            <path id="Path_16324" data-name="Path 16324" d="M-5878.263-2877.573l-3.032-.027c-.043,0-.065-.042-.049-.09l.423-1.2a.129.129,0,0,1,.11-.085l3.036.014c.044,0,.066.042.049.091l-.426,1.216A.126.126,0,0,1-5878.263-2877.573Z" transform="translate(5881.349 2878.979)" fill="#e0dfe0"/>
          </g>
          <g id="Group_23956" data-name="Group 23956" transform="translate(6.963 17.709)">
            <path id="Path_16325" data-name="Path 16325" d="M-5821.575-2876.009l-35.545-1.192c-.045,0-.068-.043-.051-.092l.43-1.225a.132.132,0,0,1,.114-.087l35.638,1.029a.07.07,0,0,1,.065.1l-.511,1.368A.154.154,0,0,1-5821.575-2876.009Z" transform="translate(5857.176 2878.605)" fill="#e0dfe0"/>
          </g>
          <g id="Group_23957" data-name="Group 23957" transform="translate(0 21.689)">
            <path id="Path_16326" data-name="Path 16326" d="M-5858.709-2858.573l-28.806-1.286c-.044,0-.065-.043-.048-.091l.421-1.2a.121.121,0,0,1,.108-.084l28.875,1.156a.067.067,0,0,1,.059.1l-.48,1.313A.141.141,0,0,1-5858.709-2858.573Z" transform="translate(5887.569 2861.232)" fill="#e0dfe0"/>
          </g>
        </g>
        <g id="Group_23967" data-name="Group 23967" transform="translate(26.394 17.903)">
          <g id="Group_23959" data-name="Group 23959" transform="translate(6.983 16.235)">
            <path id="Path_16327" data-name="Path 16327" d="M-5882.6-2840.135l-11.6-.644c-.043,0-.063-.043-.047-.091l.419-1.191a.12.12,0,0,1,.107-.082l11.627.591c.046,0,.069.045.051.1l-.439,1.238A.128.128,0,0,1-5882.6-2840.135Z" transform="translate(5894.26 2842.144)" fill="#e0dfe0"/>
          </g>
          <g id="Group_23960" data-name="Group 23960" transform="translate(12.519)">
            <path id="Path_16328" data-name="Path 16328" d="M-5858.047-2911.546l-11.994,0c-.044,0-.067-.041-.049-.089l.43-1.225a.131.131,0,0,1,.11-.089l12.022-.054c.047,0,.071.042.053.094l-.453,1.273A.142.142,0,0,1-5858.047-2911.546Z" transform="translate(5870.096 2913.006)" fill="#e0dfe0"/>
          </g>
          <g id="Group_23961" data-name="Group 23961" transform="translate(4.169 24.262)">
            <path id="Path_16329" data-name="Path 16329" d="M-5903.25-2805.543l-3.24-.209c-.042,0-.063-.046-.046-.093l.414-1.179a.116.116,0,0,1,.107-.079l3.243.2c.043,0,.066.046.049.094l-.418,1.192A.114.114,0,0,1-5903.25-2805.543Z" transform="translate(5906.542 2807.105)" fill="#e0dfe0"/>
          </g>
          <g id="Group_23962" data-name="Group 23962" transform="translate(9.731 24.656)">
            <path id="Path_16330" data-name="Path 16330" d="M-5876.358-2803.479l-5.851-.528a.065.065,0,0,1-.05-.095l.423-1.2a.119.119,0,0,1,.11-.081l5.866.5a.065.065,0,0,1,.052.1l-.435,1.225A.121.121,0,0,1-5876.358-2803.479Z" transform="translate(5882.265 2805.384)" fill="#e0dfe0"/>
          </g>
          <g id="Group_23963" data-name="Group 23963" transform="translate(2.784 28.25)">
            <path id="Path_16331" data-name="Path 16331" d="M-5872.939-2784.309l-39.574-4.044c-.061-.007-.092-.068-.066-.137l.383-1.094a.164.164,0,0,1,.157-.114l39.671,3.865a.108.108,0,0,1,.09.156l-.463,1.24A.2.2,0,0,1-5872.939-2784.309Z" transform="translate(5912.589 2789.698)" fill="#e0dfe0"/>
          </g>
          <g id="Group_23964" data-name="Group 23964" transform="translate(1.383 32.211)">
            <path id="Path_16332" data-name="Path 16332" d="M-5915.68-2770.806l-2.973-.265c-.042,0-.062-.047-.046-.094l.41-1.168a.112.112,0,0,1,.106-.076l2.976.252a.065.065,0,0,1,.047.094l-.414,1.179A.112.112,0,0,1-5915.68-2770.806Z" transform="translate(5918.705 2772.409)" fill="#e0dfe0"/>
          </g>
          <g id="Group_23965" data-name="Group 23965" transform="translate(6.753 32.736)">
            <path id="Path_16333" data-name="Path 16333" d="M-5861.359-2764.743l-33.852-4.011c-.044,0-.064-.048-.048-.1l.419-1.189a.11.11,0,0,1,.108-.078l33.938,3.858a.074.074,0,0,1,.062.107l-.494,1.323A.135.135,0,0,1-5861.359-2764.743Z" transform="translate(5895.265 2770.117)" fill="#e0dfe0"/>
          </g>
          <g id="Group_23966" data-name="Group 23966" transform="translate(0 36.156)">
            <path id="Path_16334" data-name="Path 16334" d="M-5901.515-2750.872l-23.175-2.985a.065.065,0,0,1-.044-.095l.407-1.162a.108.108,0,0,1,.105-.075l23.229,2.881a.071.071,0,0,1,.054.1l-.455,1.253A.123.123,0,0,1-5901.515-2750.872Z" transform="translate(5924.741 2755.19)" fill="#e0dfe0"/>
          </g>
        </g>
        <g id="Group_23976" data-name="Group 23976" transform="translate(16.859 62.015)">
          <g id="Group_23968" data-name="Group 23968" transform="translate(6.747)">
            <path id="Path_16335" data-name="Path 16335" d="M-5898.484-2713.033l-38.379-6.114a.067.067,0,0,1-.044-.1l.4-1.151a.1.1,0,0,1,.1-.072l38.473,5.943a.078.078,0,0,1,.061.11l-.488,1.3A.124.124,0,0,1-5898.484-2713.033Z" transform="translate(5936.913 2720.466)" fill="#7beaf3"/>
          </g>
          <g id="Group_23969" data-name="Group 23969" transform="translate(5.384 3.887)">
            <path id="Path_16336" data-name="Path 16336" d="M-5904.7-2695.572l-38.105-6.616a.067.067,0,0,1-.044-.1l.4-1.145a.1.1,0,0,1,.1-.071l38.2,6.447a.079.079,0,0,1,.06.11l-.484,1.294A.122.122,0,0,1-5904.7-2695.572Z" transform="translate(5942.86 2703.501)" fill="#e0dfe0"/>
          </g>
          <g id="Group_23970" data-name="Group 23970" transform="translate(4.028 7.755)">
            <path id="Path_16337" data-name="Path 16337" d="M-5936.35-2683.049l-12.38-2.262a.069.069,0,0,1-.043-.1l.4-1.14a.1.1,0,0,1,.1-.069l12.407,2.207a.071.071,0,0,1,.047.1l-.423,1.188A.1.1,0,0,1-5936.35-2683.049Z" transform="translate(5948.779 2686.619)" fill="#e0dfe0"/>
          </g>
          <g id="Group_23971" data-name="Group 23971" transform="translate(18.756 10.4)">
            <path id="Path_16338" data-name="Path 16338" d="M-5878.507-2672.568l-5.931-1.131a.072.072,0,0,1-.049-.1l.427-1.2a.108.108,0,0,1,.113-.072l5.945,1.1a.074.074,0,0,1,.051.105l-.441,1.22A.11.11,0,0,1-5878.507-2672.568Z" transform="translate(5884.492 2675.071)" fill="#e0dfe0"/>
          </g>
          <g id="Group_23972" data-name="Group 23972" transform="translate(27.121 11.958)">
            <path id="Path_16339" data-name="Path 16339" d="M-5833.237-2664.064l-14.683-2.8a.075.075,0,0,1-.053-.106l.447-1.229a.11.11,0,0,1,.118-.074l14.723,2.734a.081.081,0,0,1,.058.112l-.48,1.286A.12.12,0,0,1-5833.237-2664.064Z" transform="translate(5847.98 2668.273)" fill="#e0dfe0"/>
          </g>
          <g id="Group_23973" data-name="Group 23973" transform="translate(1.336 15.434)">
            <path id="Path_16340" data-name="Path 16340" d="M-5957.577-2651.267l-2.9-.538a.069.069,0,0,1-.043-.1l.4-1.128a.093.093,0,0,1,.1-.067l2.908.524a.071.071,0,0,1,.045.1l-.4,1.141A.1.1,0,0,1-5957.577-2651.267Z" transform="translate(5960.529 2653.099)" fill="#e0dfe0"/>
          </g>
          <g id="Group_23974" data-name="Group 23974" transform="translate(6.519 16.45)">
            <path id="Path_16341" data-name="Path 16341" d="M-5905.742-2640.293l-32.113-7.056a.073.073,0,0,1-.044-.1l.4-1.149a.1.1,0,0,1,.1-.067l32.193,6.914a.082.082,0,0,1,.058.113l-.476,1.272A.114.114,0,0,1-5905.742-2640.293Z" transform="translate(5937.905 2648.666)" fill="#e0dfe0"/>
          </g>
          <g id="Group_23975" data-name="Group 23975" transform="translate(0 19.246)">
            <path id="Path_16342" data-name="Path 16342" d="M-5944.226-2630.1l-22.088-5.075a.071.071,0,0,1-.043-.1l.4-1.123a.093.093,0,0,1,.1-.066l22.14,4.978a.078.078,0,0,1,.052.107l-.439,1.209A.106.106,0,0,1-5944.226-2630.1Z" transform="translate(5966.362 2636.461)" fill="#e0dfe0"/>
          </g>
        </g>
        <g id="Group_23977" data-name="Group 23977" transform="translate(28.709 9.436)">
          <path id="Path_16343" data-name="Path 16343" d="M-5908-2942.386l-6.5-.045c-.105,0-.159-.1-.118-.224l2.319-6.958a.331.331,0,0,1,.271-.228l6.6-.124c.112,0,.169.1.126.226l-2.418,7.126A.33.33,0,0,1-5908-2942.386Zm-6.159-.489,6.111.033,2.258-6.659-6.192.106Z" transform="translate(5914.634 2949.964)" fill="#e0dfe0"/>
        </g>
        <g id="Group_23978" data-name="Group 23978" transform="translate(31.169 8.88)">
          <path id="Path_16344" data-name="Path 16344" d="M-5903.9-2949.123l1.112,3.366,7.041-6.635-6.355,4.5Z" transform="translate(5903.9 2952.392)" fill="#7beaf3"/>
        </g>
        <g id="Group_23979" data-name="Group 23979" transform="translate(23.501 25.374)">
          <path id="Path_16345" data-name="Path 16345" d="M-5930.944-2872.789l-6.295-.395c-.1-.006-.154-.108-.114-.228l2.258-6.772a.3.3,0,0,1,.263-.212l6.389.234c.11,0,.166.107.122.232l-2.351,6.932A.3.3,0,0,1-5930.944-2872.789Zm-5.964-.816,5.919.361,2.2-6.478-6-.229Z" transform="translate(5937.366 2880.396)" fill="#e0dfe0"/>
        </g>
        <g id="Group_23980" data-name="Group 23980" transform="translate(25.891 25.134)">
          <path id="Path_16346" data-name="Path 16346" d="M-5926.937-2878.648l1.073,3.4,6.827-6.2-6.16,4.119Z" transform="translate(5926.937 2881.447)" fill="#7beaf3"/>
        </g>
        <g id="Group_23981" data-name="Group 23981" transform="translate(18.314 41.124)">
          <path id="Path_16347" data-name="Path 16347" d="M-5953.792-2803.9l-6.1-.732c-.1-.012-.147-.116-.11-.232l2.2-6.592a.272.272,0,0,1,.254-.2l6.185.581c.106.009.159.116.118.236l-2.289,6.743A.272.272,0,0,1-5953.792-2803.9Zm-5.772-1.132,5.729.68,2.137-6.3-5.8-.554Z" transform="translate(5960.01 2811.654)" fill="#e0dfe0"/>
        </g>
        <g id="Group_23982" data-name="Group 23982" transform="translate(20.635 41.309)">
          <path id="Path_16348" data-name="Path 16348" d="M-5949.877-2808.5l1.032,3.425,6.619-5.77-5.969,3.746Z" transform="translate(5949.877 2810.846)" fill="#7beaf3"/>
        </g>
        <g id="Group_23983" data-name="Group 23983" transform="translate(11.955 60.425)">
          <path id="Path_16349" data-name="Path 16349" d="M-5981.8-2719.483l-5.852-1.134a.17.17,0,0,1-.106-.237l2.126-6.373a.24.24,0,0,1,.244-.177l5.938.992a.169.169,0,0,1,.111.241l-2.21,6.514A.243.243,0,0,1-5981.8-2719.483Zm-5.542-1.508,5.5,1.057,2.064-6.087-5.572-.94Z" transform="translate(5987.766 2727.405)" fill="#e0dfe0"/>
        </g>
        <g id="Group_23984" data-name="Group 23984" transform="translate(14.194 61.117)">
          <path id="Path_16350" data-name="Path 16350" d="M-5977.994-2722.584l.985,3.458,6.366-5.261-5.739,3.3Z" transform="translate(5977.994 2724.386)" fill="#7beaf3"/>
        </g>
        <g id="Group_23985" data-name="Group 23985" transform="translate(7.114 75.113)">
          <path id="Path_16351" data-name="Path 16351" d="M-6003.107-2655.251l-5.672-1.429a.177.177,0,0,1-.1-.24l2.071-6.209a.222.222,0,0,1,.238-.163l5.753,1.3a.178.178,0,0,1,.108.246l-2.152,6.341A.22.22,0,0,1-6003.107-2655.251Zm-5.37-1.784,5.331,1.334,2.01-5.927-5.4-1.225Z" transform="translate(6008.894 2663.296)" fill="#e0dfe0"/>
        </g>
        <g id="Group_23986" data-name="Group 23986" transform="translate(9.292 76.178)">
          <path id="Path_16352" data-name="Path 16352" d="M-5999.391-2657.243l.949,3.481,6.177-4.883-5.566,2.974Z" transform="translate(5999.391 2658.645)" fill="#7beaf3"/>
        </g>
      </g>
    </g>
  </g>
</svg>
