<svg id="Group_4237" data-name="Group 4237" xmlns="http://www.w3.org/2000/svg" width="183.449" height="46.552" viewBox="0 0 183.449 46.552">
  <g id="Group_1639" data-name="Group 1639" transform="translate(0)">
    <g id="Group_1" data-name="Group 1">
      <path id="Path_1" data-name="Path 1" d="M49.532,774.419V747.275L39.1,744.022a.822.822,0,0,0-1.067.784v33.9a.825.825,0,0,0,.577.784l21.549,6.72a.822.822,0,0,0,1.067-.784v-6.756L50.108,775.2A.821.821,0,0,1,49.532,774.419Z" transform="translate(-38.032 -739.697)" fill="#2ac7d2"/>
      <path id="Path_2" data-name="Path 2" d="M66.422,748.589l-21.549-6.72a.82.82,0,0,0-1.065.785v6.755l11.116,3.468a.823.823,0,0,1,.577.784v27.144l10.431,3.253A.822.822,0,0,0,67,783.274v-33.9A.822.822,0,0,0,66.422,748.589Z" transform="translate(-32.308 -741.831)" fill="#783ce2"/>
      <path id="Path_3" data-name="Path 3" d="M54.924,749.105l-11.116-3.468v27.144a.821.821,0,0,0,.575.784L55.5,777.033V749.89A.823.823,0,0,0,54.924,749.105Z" transform="translate(-32.308 -738.059)" fill="#288aac"/>
    </g>
    <path id="Path_4" data-name="Path 4" d="M150.282,746.151A2.262,2.262,0,1,1,147.8,748.4a2.372,2.372,0,0,1,2.479-2.252ZM148.429,771.6V754.25a.364.364,0,0,1,.346-.378l3.012,0a.365.365,0,0,1,.346.38V771.6a.363.363,0,0,1-.344.378l-3.014,0a.365.365,0,0,1-.346-.378ZM196,768.351a1.867,1.867,0,0,1,1.308.531,1.8,1.8,0,0,1,0,2.568,1.875,1.875,0,0,1-2.616,0,1.793,1.793,0,0,1,0-2.568,1.864,1.864,0,0,1,1.308-.531Zm1.079.757a1.548,1.548,0,0,0-2.158,0,1.481,1.481,0,0,0,0,2.118,1.548,1.548,0,0,0,2.158,0,1.481,1.481,0,0,0,0-2.118Zm-1.4,1.2h.43c.161,0,.231.064.231.215v.074c0,.048,0,.092,0,.119a.574.574,0,0,0,.054.313h.4v-.068a.143.143,0,0,1-.08-.149c-.01-.536-.02-.561-.253-.661a.441.441,0,0,0,.307-.448.52.52,0,0,0-.137-.366.455.455,0,0,0-.35-.125H195.3v1.818h.372v-.721Zm0-.313v-.472h.452a.282.282,0,0,1,.2.046.233.233,0,0,1,.068.185.254.254,0,0,1-.068.2.283.283,0,0,1-.2.046Zm-78.255-13.479c2.055-3.472,7.448-4.205,10.4-1.724,1.294,1.085,1.856,2.835,1.856,5.23V771.6a.374.374,0,0,1-.37.378l-3.227,0a.377.377,0,0,1-.372-.378v-9.875c0-2.664-.739-5.005-3.763-5.005-2.541,0-4.038,2.2-4.038,4.488V771.6a.375.375,0,0,1-.37.378l-3.245,0a.377.377,0,0,1-.372-.378V754.25a.376.376,0,0,1,.372-.378l2.758,0a.377.377,0,0,1,.372.38v2.264Zm26.7.261c-1.76-.549-7.532-1.579-7.532,1.633,0,1.7,2.1,2.146,3.395,2.634,2.8.994,5.378,2.1,5.378,5.481a5.171,5.171,0,0,1-2.8,4.611c-2.6,1.479-6.893,1.248-9.591.2a.386.386,0,0,1-.245-.362l-.006-2.686a.379.379,0,0,1,.153-.313.36.36,0,0,1,.336-.058c1.655.782,7.888,2.361,8.034-1.169.046-1.111-1.089-1.79-2.208-2.234-1.834-.729-4.233-1.308-5.511-2.909a4.647,4.647,0,0,1-.988-2.978c0-3.229,3.349-5.187,6.282-5.479a15.914,15.914,0,0,1,2.971.054,9.838,9.838,0,0,1,2.531.55.377.377,0,0,1,.241.352l.048,2.31a.373.373,0,0,1-.484.36Zm-41.859-.348c-3.749.052-5.25,3.086-5.286,6.471.036,3.387,1.537,6.423,5.286,6.473,3.747-.05,5.25-3.086,5.286-6.473-.036-3.385-1.539-6.419-5.286-6.471ZM93.058,762.9a9.2,9.2,0,1,1,9.195,9.575,9.389,9.389,0,0,1-9.195-9.575Zm91.175-6.471c-3.749.052-5.25,3.086-5.286,6.471.036,3.387,1.537,6.423,5.286,6.473,3.747-.05,5.25-3.086,5.286-6.473-.036-3.385-1.539-6.419-5.286-6.471Zm-9.195,6.471a9.2,9.2,0,1,1,9.195,9.575,9.389,9.389,0,0,1-9.195-9.575Zm-5.949,6.411c-1.5,1.852-3.056,2.939-5.408,2.939-4.94.524-8.972-3.283-8.972-9.4a10.424,10.424,0,0,1,2.411-7.148,8.122,8.122,0,0,1,6.349-2.724,7.64,7.64,0,0,1,5.475,2.574v-8.41a.374.374,0,0,1,.37-.378l2.911,0a.376.376,0,0,1,.372.378V771.6a.376.376,0,0,1-.372.378l-2.768,0a.377.377,0,0,1-.37-.378v-2.3Zm-8.912-11.377a7.457,7.457,0,0,0-1.412,4.776,7.7,7.7,0,0,0,1.493,4.717,4.394,4.394,0,0,0,3.542,1.561,4.149,4.149,0,0,0,3.423-1.4,7.691,7.691,0,0,0,1.822-5c-.074-6.015-5.7-8.547-8.868-4.657Zm-94.3-1.764a6.633,6.633,0,0,1,5.272-2.7,8.459,8.459,0,0,1,4.175,1.019,5.4,5.4,0,0,1,1.927,2.091,6.653,6.653,0,0,1,5.927-3.11c4.962,0,7.321,3.026,7.321,7.432V771.6a.387.387,0,0,1-.4.378l-3.206,0a.389.389,0,0,1-.4-.378v-9.722c0-2.6-.615-4.916-4.09-4.916-2.55,0-4.225,2.564-4.225,4.747V771.6a.387.387,0,0,1-.394.378l-3.45,0a.39.39,0,0,1-.4-.378V761.321c0-2.586-.864-4.354-3.892-4.354-2.714,0-4.177,2.447-4.177,4.762V771.6a.387.387,0,0,1-.4.378l-3.206,0a.389.389,0,0,1-.4-.378V754.25a.387.387,0,0,1,.4-.378l3.206,0a.389.389,0,0,1,.4.38v1.917Z" transform="translate(-14.395 -737.55)" fill="#052942"/>
  </g>
</svg>
