<svg xmlns="http://www.w3.org/2000/svg" xmlns:xlink="http://www.w3.org/1999/xlink" width="20.304" height="24" viewBox="0 0 20.304 24">
  <defs>
    <clipPath id="clip-path">
      <rect id="Rectangle_3978" data-name="Rectangle 3978" width="20.304" height="24" fill="#052942"/>
    </clipPath>
  </defs>
  <g id="Group_23671" data-name="Group 23671" transform="translate(0 0)">
    <g id="Group_23670" data-name="Group 23670" transform="translate(0 0)" clip-path="url(#clip-path)">
      <path id="Path_16166" data-name="Path 16166" d="M31.449,11a2.461,2.461,0,0,1,.242,1.077,1.583,1.583,0,0,0,1.575,1.574h.006a1.589,1.589,0,0,0,1.575-1.572A5.489,5.489,0,0,0,34.3,9.654l-.034-.073A1.577,1.577,0,0,0,31.449,11" transform="translate(-14.544 -4.054)" fill="#052942"/>
      <path id="Path_16167" data-name="Path 16167" d="M18.446,21.368a1.576,1.576,0,0,0-.585,3.1c3.373.643,3.655,1.673,3.655,2.668a2.728,2.728,0,0,1-1.239,2.283,9.73,9.73,0,0,1-7.988.871,1.577,1.577,0,1,0-.992,2.994,12.953,12.953,0,0,0,4.078.637c.094,0,.188,0,.281,0a11.64,11.64,0,0,0,6.374-1.894,5.866,5.866,0,0,0,2.637-4.89c0-4.592-4.68-5.479-6.223-5.771" transform="translate(-4.748 -9.922)" fill="#052942"/>
      <path id="Path_16168" data-name="Path 16168" d="M4.489,20.393,15.825,4.606a1.612,1.612,0,0,0,.192-.254c.009-.014.013-.029.021-.043l1.276-1.777.058-.081A1.577,1.577,0,0,0,14.764.68l-.62.863A13.069,13.069,0,0,0,3.421,1.92a5.958,5.958,0,0,0-3.414,5.3c0,3.632,3.028,4.772,6.23,5.332L3.252,16.709a2.7,2.7,0,0,1-.1-.7A1.578,1.578,0,0,0,0,16a5.915,5.915,0,0,0,1.2,3.557L.379,20.708A1.579,1.579,0,0,0,.741,22.9a1.555,1.555,0,0,0,.921.3h0a1.583,1.583,0,0,0,1.278-.657l1.533-2.134,0,0,.009-.012m7.75-16.2L8.3,9.673c-3.613-.488-5.145-1-5.145-2.433A2.826,2.826,0,0,1,4.866,4.724,9.928,9.928,0,0,1,12.239,4.2" transform="translate(0 0)" fill="#052942"/>
    </g>
  </g>
</svg>
