<svg xmlns="http://www.w3.org/2000/svg" width="46.266" height="46.263" viewBox="0 0 46.266 46.263"><defs><style>.a{fill:#f4f2f0;}.b{fill:#052942;}</style></defs><path class="a" d="M-5931.794,5943.8a23.13,23.13,0,0,0-23.132,23.131,23.131,23.131,0,0,0,23.132,23.132,23.132,23.132,0,0,0,23.134-23.132A23.132,23.132,0,0,0-5931.794,5943.8Z" transform="translate(5954.926 -5943.804)"/><g transform="translate(-3556.557 -4195.341)"><path class="b" d="M3589.366,4220.546a.75.75,0,0,1,.751-.75h1.719a.587.587,0,0,0,.588-.632,13.01,13.01,0,0,0-2.775-6.888.585.585,0,0,0-.867-.039l-1.215,1.215a.75.75,0,0,1-1.06-1.061l1.232-1.232a.585.585,0,0,0-.031-.861,13.016,13.016,0,0,0-6.907-2.9.587.587,0,0,0-.638.587v1.731a.75.75,0,0,1-1.5,0v-1.731a.588.588,0,0,0-.638-.587,13.014,13.014,0,0,0-6.907,2.9.585.585,0,0,0-.031.861l1.227,1.227a.75.75,0,1,1-1.061,1.061l-1.21-1.21a.584.584,0,0,0-.866.039,13.008,13.008,0,0,0-2.775,6.888.587.587,0,0,0,.587.632h1.731a.75.75,0,0,1,0,1.5h-1.7a.585.585,0,0,0-.585.643,12.989,12.989,0,0,0,1.915,5.421.593.593,0,0,0,.5.272h5.659a.587.587,0,0,0,.593-.5,4.336,4.336,0,0,1,3.791-3.8.6.6,0,0,0,.524-.449l2.335-10.254a1,1,0,0,1,1.951.444l-2.328,10.221a.6.6,0,0,0,.289.639,4.333,4.333,0,0,1,2.057,3.192.6.6,0,0,0,.608.511h5.644a.592.592,0,0,0,.5-.272,13,13,0,0,0,1.916-5.421.586.586,0,0,0-.586-.643h-1.687A.75.75,0,0,1,3589.366,4220.546Z"/></g></svg>