<svg xmlns="http://www.w3.org/2000/svg" width="46.266" height="46.263" viewBox="0 0 46.266 46.263"><defs><style>.a{fill:#f4f2f0;}.b{fill:#052942;}</style></defs><g transform="translate(-0.328 0.047)"><path class="a" d="M-5931.794,5943.8a23.13,23.13,0,0,0-23.132,23.131,23.131,23.131,0,0,0,23.132,23.132,23.132,23.132,0,0,0,23.134-23.132A23.132,23.132,0,0,0-5931.794,5943.8Z" transform="translate(5955.254 -5943.851)"/><g transform="translate(13.353 10.184)"><path class="b" d="M-3282.908,5952.67h-1.627v-4.106a6.378,6.378,0,0,0-6.372-6.371,6.378,6.378,0,0,0-6.371,6.371v4.106h-2.033a1.351,1.351,0,0,0-1.351,1.35v9.77a1.351,1.351,0,0,0,1.351,1.351h16.4a1.35,1.35,0,0,0,1.35-1.351v-9.77A1.35,1.35,0,0,0-3282.908,5952.67Zm-6.485,8.691a.564.564,0,0,1-.564.563h-1.9a.563.563,0,0,1-.564-.563v-4.2a1.513,1.513,0,0,1,1.514-1.514,1.513,1.513,0,0,1,1.514,1.514Zm2.4-8.691h-7.82v-4.106a3.914,3.914,0,0,1,3.909-3.91,3.914,3.914,0,0,1,3.91,3.91Z" transform="translate(3300.664 -5942.193)"/></g></g></svg>