<svg xmlns="http://www.w3.org/2000/svg" width="15" height="15" viewBox="0 0 15 15">
  <path id="question-circle" d="M23,15.5A7.5,7.5,0,1,1,15.5,8,7.5,7.5,0,0,1,23,15.5Zm-7.3-5.02a3.917,3.917,0,0,0-3.525,1.928.363.363,0,0,0,.082.492l1.049.8a.363.363,0,0,0,.5-.064c.54-.685.911-1.083,1.733-1.083.618,0,1.382.4,1.382,1,0,.453-.374.685-.984,1.028-.711.4-1.653.9-1.653,2.137v.121a.363.363,0,0,0,.363.363h1.694a.363.363,0,0,0,.363-.363v-.04c0-.861,2.516-.9,2.516-3.226C19.225,11.81,17.406,10.48,15.7,10.48Zm-.2,7.5a1.391,1.391,0,1,0,1.391,1.391A1.393,1.393,0,0,0,15.5,17.98Z" transform="translate(-8 -8)" fill="#052942"/>
</svg>
